# xmcd CD database file
# Copyright (C) 1993-1998 Ti Kan
# 
# Track frame offsets:
#     150
#     14307
#     30020
#     47712
#     62215
#     77722
#     94190
#     105477
#     122047
#     142435
#     157832
#     171330
# 
# Disc length: 2430 seconds
# 
# Revision: 1
# Processed by: cddbd v1.4b41PL1 Copyright (c) Steve Scherf et al.
# Submitted via: DiscPlay 4.0.4
# 
DISCID=96097c0c
DTITLE=Tomboola Band - Arkansas Moonshine
DYEAR=1900
DGENRE=
TTITLE0=Rough Around The Edges
TTITLE1=I'll Be Your Baby Tonight
TTITLE2=Back Seat Boogie
TTITLE3=She'll Come Back Again
TTITLE4=Leavin Dallas For Good
TTITLE5=She's Not Crying Anymore
TTITLE6=The Way You Do The Things You Do
TTITLE7=Down In Lousiana
TTITLE8=The Fiddler
TTITLE9=I Wouldn't Live In NY City
TTITLE10=The Ol'e Heart
TTITLE11=Sugarfoot Rag
EXTD=
EXTT0=
EXTT1=
EXTT2=
EXTT3=
EXTT4=
EXTT5=
EXTT6=
EXTT7=
EXTT8=
EXTT9=
EXTT10=
EXTT11=
PLAYORDER=
